<mxfile host="app.diagrams.net" agent="Mozilla/5.0 (Windows NT 10.0; Win64; x64) AppleWebKit/537.36 (KHTML, like Gecko) Chrome/134.0.0.0 Safari/537.36 Edg/134.0.0.0" version="26.2.5">
  <diagram name="Страница — 1" id="0dEBhMouFC2KtDC2krwZ">
    <mxGraphModel dx="1063" dy="555" grid="0" gridSize="10" guides="1" tooltips="1" connect="1" arrows="1" fold="1" page="1" pageScale="1" pageWidth="827" pageHeight="1169" math="0" shadow="0">
      <root>
        <mxCell id="0" />
        <mxCell id="1" parent="0" />
        <mxCell id="DU6GNXK0AChC_ucAe-qL-1" value="Кандидат" style="shape=umlActor;verticalLabelPosition=bottom;verticalAlign=top;html=1;outlineConnect=0;" vertex="1" parent="1">
          <mxGeometry x="90" y="370" width="30" height="60" as="geometry" />
        </mxCell>
        <mxCell id="DU6GNXK0AChC_ucAe-qL-4" value="Рекрутер" style="shape=umlActor;verticalLabelPosition=bottom;verticalAlign=top;html=1;outlineConnect=0;" vertex="1" parent="1">
          <mxGeometry x="90" y="120" width="30" height="60" as="geometry" />
        </mxCell>
        <mxCell id="DU6GNXK0AChC_ucAe-qL-31" style="edgeStyle=orthogonalEdgeStyle;rounded=0;orthogonalLoop=1;jettySize=auto;html=1;exitX=0;exitY=0.3333333333333333;exitDx=0;exitDy=0;exitPerimeter=0;entryX=1;entryY=0.5;entryDx=0;entryDy=0;" edge="1" parent="1" source="DU6GNXK0AChC_ucAe-qL-5" target="DU6GNXK0AChC_ucAe-qL-22">
          <mxGeometry relative="1" as="geometry" />
        </mxCell>
        <mxCell id="DU6GNXK0AChC_ucAe-qL-32" style="edgeStyle=orthogonalEdgeStyle;rounded=0;orthogonalLoop=1;jettySize=auto;html=1;exitX=0;exitY=0.3333333333333333;exitDx=0;exitDy=0;exitPerimeter=0;entryX=1;entryY=0.5;entryDx=0;entryDy=0;" edge="1" parent="1" source="DU6GNXK0AChC_ucAe-qL-5" target="DU6GNXK0AChC_ucAe-qL-23">
          <mxGeometry relative="1" as="geometry" />
        </mxCell>
        <mxCell id="DU6GNXK0AChC_ucAe-qL-5" value="Работодатель" style="shape=umlActor;verticalLabelPosition=bottom;verticalAlign=top;html=1;outlineConnect=0;" vertex="1" parent="1">
          <mxGeometry x="680" y="100" width="30" height="60" as="geometry" />
        </mxCell>
        <mxCell id="DU6GNXK0AChC_ucAe-qL-33" style="edgeStyle=orthogonalEdgeStyle;rounded=0;orthogonalLoop=1;jettySize=auto;html=1;exitX=0;exitY=0.3333333333333333;exitDx=0;exitDy=0;exitPerimeter=0;entryX=1;entryY=0.5;entryDx=0;entryDy=0;" edge="1" parent="1" source="DU6GNXK0AChC_ucAe-qL-6" target="DU6GNXK0AChC_ucAe-qL-27">
          <mxGeometry relative="1" as="geometry" />
        </mxCell>
        <mxCell id="DU6GNXK0AChC_ucAe-qL-34" style="edgeStyle=orthogonalEdgeStyle;rounded=0;orthogonalLoop=1;jettySize=auto;html=1;exitX=0;exitY=0.3333333333333333;exitDx=0;exitDy=0;exitPerimeter=0;entryX=1;entryY=0.5;entryDx=0;entryDy=0;" edge="1" parent="1" source="DU6GNXK0AChC_ucAe-qL-6" target="DU6GNXK0AChC_ucAe-qL-25">
          <mxGeometry relative="1" as="geometry" />
        </mxCell>
        <mxCell id="DU6GNXK0AChC_ucAe-qL-35" style="edgeStyle=orthogonalEdgeStyle;rounded=0;orthogonalLoop=1;jettySize=auto;html=1;exitX=0;exitY=0.3333333333333333;exitDx=0;exitDy=0;exitPerimeter=0;" edge="1" parent="1" source="DU6GNXK0AChC_ucAe-qL-6" target="DU6GNXK0AChC_ucAe-qL-26">
          <mxGeometry relative="1" as="geometry" />
        </mxCell>
        <mxCell id="DU6GNXK0AChC_ucAe-qL-6" value="Администратор" style="shape=umlActor;verticalLabelPosition=bottom;verticalAlign=top;html=1;outlineConnect=0;" vertex="1" parent="1">
          <mxGeometry x="690" y="370" width="30" height="60" as="geometry" />
        </mxCell>
        <mxCell id="DU6GNXK0AChC_ucAe-qL-7" value="Установка требований вакансии" style="ellipse;whiteSpace=wrap;html=1;" vertex="1" parent="1">
          <mxGeometry x="180" y="70" width="160" height="40" as="geometry" />
        </mxCell>
        <mxCell id="DU6GNXK0AChC_ucAe-qL-37" style="edgeStyle=orthogonalEdgeStyle;rounded=0;orthogonalLoop=1;jettySize=auto;html=1;exitX=1;exitY=0.5;exitDx=0;exitDy=0;" edge="1" parent="1" source="DU6GNXK0AChC_ucAe-qL-8" target="DU6GNXK0AChC_ucAe-qL-22">
          <mxGeometry relative="1" as="geometry" />
        </mxCell>
        <mxCell id="DU6GNXK0AChC_ucAe-qL-8" value="&amp;nbsp;Получение откликов на вакансии" style="ellipse;whiteSpace=wrap;html=1;" vertex="1" parent="1">
          <mxGeometry x="180" y="120" width="160" height="40" as="geometry" />
        </mxCell>
        <mxCell id="DU6GNXK0AChC_ucAe-qL-9" value="Проведение&lt;div&gt;собеседования&lt;/div&gt;" style="ellipse;whiteSpace=wrap;html=1;" vertex="1" parent="1">
          <mxGeometry x="180" y="170" width="160" height="40" as="geometry" />
        </mxCell>
        <mxCell id="DU6GNXK0AChC_ucAe-qL-10" value="Просмотр резюме" style="ellipse;whiteSpace=wrap;html=1;" vertex="1" parent="1">
          <mxGeometry x="180" y="220" width="160" height="40" as="geometry" />
        </mxCell>
        <mxCell id="DU6GNXK0AChC_ucAe-qL-11" value="&amp;nbsp;Подача резюме" style="ellipse;whiteSpace=wrap;html=1;" vertex="1" parent="1">
          <mxGeometry x="180" y="380" width="160" height="40" as="geometry" />
        </mxCell>
        <mxCell id="DU6GNXK0AChC_ucAe-qL-12" value="Поиск вакансий" style="ellipse;whiteSpace=wrap;html=1;" vertex="1" parent="1">
          <mxGeometry x="180" y="430" width="160" height="40" as="geometry" />
        </mxCell>
        <mxCell id="DU6GNXK0AChC_ucAe-qL-13" value="&amp;nbsp;Обратная связь с рекрутерами" style="ellipse;whiteSpace=wrap;html=1;" vertex="1" parent="1">
          <mxGeometry x="180" y="330" width="160" height="40" as="geometry" />
        </mxCell>
        <mxCell id="DU6GNXK0AChC_ucAe-qL-14" value="" style="endArrow=classic;html=1;rounded=0;exitX=0;exitY=0;exitDx=0;exitDy=0;" edge="1" parent="1" source="DU6GNXK0AChC_ucAe-qL-13">
          <mxGeometry width="50" height="50" relative="1" as="geometry">
            <mxPoint x="240" y="330" as="sourcePoint" />
            <mxPoint x="100" y="200" as="targetPoint" />
          </mxGeometry>
        </mxCell>
        <mxCell id="DU6GNXK0AChC_ucAe-qL-15" value="" style="endArrow=classic;html=1;rounded=0;exitX=1;exitY=0.3333333333333333;exitDx=0;exitDy=0;exitPerimeter=0;entryX=0;entryY=0.5;entryDx=0;entryDy=0;" edge="1" parent="1" source="DU6GNXK0AChC_ucAe-qL-4" target="DU6GNXK0AChC_ucAe-qL-7">
          <mxGeometry width="50" height="50" relative="1" as="geometry">
            <mxPoint x="240" y="330" as="sourcePoint" />
            <mxPoint x="290" y="280" as="targetPoint" />
          </mxGeometry>
        </mxCell>
        <mxCell id="DU6GNXK0AChC_ucAe-qL-16" value="" style="endArrow=classic;html=1;rounded=0;exitX=1;exitY=0.3333333333333333;exitDx=0;exitDy=0;exitPerimeter=0;" edge="1" parent="1" source="DU6GNXK0AChC_ucAe-qL-4" target="DU6GNXK0AChC_ucAe-qL-8">
          <mxGeometry width="50" height="50" relative="1" as="geometry">
            <mxPoint x="240" y="330" as="sourcePoint" />
            <mxPoint x="290" y="280" as="targetPoint" />
          </mxGeometry>
        </mxCell>
        <mxCell id="DU6GNXK0AChC_ucAe-qL-17" value="" style="endArrow=classic;html=1;rounded=0;exitX=1;exitY=0.3333333333333333;exitDx=0;exitDy=0;exitPerimeter=0;" edge="1" parent="1" source="DU6GNXK0AChC_ucAe-qL-4">
          <mxGeometry width="50" height="50" relative="1" as="geometry">
            <mxPoint x="240" y="330" as="sourcePoint" />
            <mxPoint x="180" y="190" as="targetPoint" />
          </mxGeometry>
        </mxCell>
        <mxCell id="DU6GNXK0AChC_ucAe-qL-18" value="" style="endArrow=classic;html=1;rounded=0;exitX=1;exitY=0.3333333333333333;exitDx=0;exitDy=0;exitPerimeter=0;entryX=0;entryY=0.5;entryDx=0;entryDy=0;" edge="1" parent="1" source="DU6GNXK0AChC_ucAe-qL-4" target="DU6GNXK0AChC_ucAe-qL-10">
          <mxGeometry width="50" height="50" relative="1" as="geometry">
            <mxPoint x="240" y="330" as="sourcePoint" />
            <mxPoint x="290" y="280" as="targetPoint" />
          </mxGeometry>
        </mxCell>
        <mxCell id="DU6GNXK0AChC_ucAe-qL-19" value="" style="endArrow=classic;html=1;rounded=0;exitX=1;exitY=0.3333333333333333;exitDx=0;exitDy=0;exitPerimeter=0;entryX=0;entryY=0.5;entryDx=0;entryDy=0;" edge="1" parent="1" source="DU6GNXK0AChC_ucAe-qL-1" target="DU6GNXK0AChC_ucAe-qL-13">
          <mxGeometry width="50" height="50" relative="1" as="geometry">
            <mxPoint x="260" y="330" as="sourcePoint" />
            <mxPoint x="310" y="280" as="targetPoint" />
          </mxGeometry>
        </mxCell>
        <mxCell id="DU6GNXK0AChC_ucAe-qL-20" value="" style="endArrow=classic;html=1;rounded=0;exitX=1;exitY=0.3333333333333333;exitDx=0;exitDy=0;exitPerimeter=0;entryX=0;entryY=0.5;entryDx=0;entryDy=0;" edge="1" parent="1" source="DU6GNXK0AChC_ucAe-qL-1" target="DU6GNXK0AChC_ucAe-qL-11">
          <mxGeometry width="50" height="50" relative="1" as="geometry">
            <mxPoint x="130" y="400" as="sourcePoint" />
            <mxPoint x="190" y="360" as="targetPoint" />
          </mxGeometry>
        </mxCell>
        <mxCell id="DU6GNXK0AChC_ucAe-qL-21" value="" style="endArrow=classic;html=1;rounded=0;exitX=1;exitY=0.3333333333333333;exitDx=0;exitDy=0;exitPerimeter=0;entryX=0;entryY=0.5;entryDx=0;entryDy=0;" edge="1" parent="1" source="DU6GNXK0AChC_ucAe-qL-1" target="DU6GNXK0AChC_ucAe-qL-12">
          <mxGeometry width="50" height="50" relative="1" as="geometry">
            <mxPoint x="260" y="330" as="sourcePoint" />
            <mxPoint x="310" y="280" as="targetPoint" />
          </mxGeometry>
        </mxCell>
        <mxCell id="DU6GNXK0AChC_ucAe-qL-22" value="Просмотр резюме" style="ellipse;whiteSpace=wrap;html=1;" vertex="1" parent="1">
          <mxGeometry x="460" y="130" width="160" height="40" as="geometry" />
        </mxCell>
        <mxCell id="DU6GNXK0AChC_ucAe-qL-23" value="Обратная связь по кандидатам" style="ellipse;whiteSpace=wrap;html=1;" vertex="1" parent="1">
          <mxGeometry x="460" y="180" width="160" height="40" as="geometry" />
        </mxCell>
        <mxCell id="DU6GNXK0AChC_ucAe-qL-24" value="Установка требований вакансии" style="ellipse;whiteSpace=wrap;html=1;" vertex="1" parent="1">
          <mxGeometry x="460" y="80" width="160" height="40" as="geometry" />
        </mxCell>
        <mxCell id="DU6GNXK0AChC_ucAe-qL-25" value="Мониторинг процессов" style="ellipse;whiteSpace=wrap;html=1;" vertex="1" parent="1">
          <mxGeometry x="460" y="380" width="160" height="40" as="geometry" />
        </mxCell>
        <mxCell id="DU6GNXK0AChC_ucAe-qL-26" value="Поддержка пользователей" style="ellipse;whiteSpace=wrap;html=1;" vertex="1" parent="1">
          <mxGeometry x="460" y="430" width="160" height="40" as="geometry" />
        </mxCell>
        <mxCell id="DU6GNXK0AChC_ucAe-qL-27" value="&amp;nbsp;Управление базой данных кандидатов" style="ellipse;whiteSpace=wrap;html=1;" vertex="1" parent="1">
          <mxGeometry x="460" y="330" width="160" height="40" as="geometry" />
        </mxCell>
        <mxCell id="DU6GNXK0AChC_ucAe-qL-28" style="edgeStyle=orthogonalEdgeStyle;rounded=0;orthogonalLoop=1;jettySize=auto;html=1;exitX=0;exitY=0.5;exitDx=0;exitDy=0;entryX=0.5;entryY=0;entryDx=0;entryDy=0;entryPerimeter=0;" edge="1" parent="1" source="DU6GNXK0AChC_ucAe-qL-24" target="DU6GNXK0AChC_ucAe-qL-4">
          <mxGeometry relative="1" as="geometry">
            <Array as="points">
              <mxPoint x="460" y="40" />
              <mxPoint x="105" y="40" />
            </Array>
          </mxGeometry>
        </mxCell>
        <mxCell id="DU6GNXK0AChC_ucAe-qL-29" style="edgeStyle=orthogonalEdgeStyle;rounded=0;orthogonalLoop=1;jettySize=auto;html=1;exitX=0;exitY=0.5;exitDx=0;exitDy=0;entryX=1;entryY=1;entryDx=0;entryDy=0;entryPerimeter=0;" edge="1" parent="1" source="DU6GNXK0AChC_ucAe-qL-23" target="DU6GNXK0AChC_ucAe-qL-1">
          <mxGeometry relative="1" as="geometry">
            <Array as="points">
              <mxPoint x="360" y="200" />
              <mxPoint x="360" y="500" />
              <mxPoint x="120" y="500" />
            </Array>
          </mxGeometry>
        </mxCell>
        <mxCell id="DU6GNXK0AChC_ucAe-qL-30" value="" style="endArrow=classic;html=1;rounded=0;exitX=0;exitY=0.3333333333333333;exitDx=0;exitDy=0;exitPerimeter=0;entryX=1;entryY=0.5;entryDx=0;entryDy=0;" edge="1" parent="1" source="DU6GNXK0AChC_ucAe-qL-5" target="DU6GNXK0AChC_ucAe-qL-24">
          <mxGeometry width="50" height="50" relative="1" as="geometry">
            <mxPoint x="610" y="280" as="sourcePoint" />
            <mxPoint x="660" y="230" as="targetPoint" />
          </mxGeometry>
        </mxCell>
        <mxCell id="DU6GNXK0AChC_ucAe-qL-36" style="edgeStyle=orthogonalEdgeStyle;rounded=0;orthogonalLoop=1;jettySize=auto;html=1;exitX=0;exitY=0.5;exitDx=0;exitDy=0;entryX=0;entryY=1;entryDx=0;entryDy=0;entryPerimeter=0;" edge="1" parent="1" source="DU6GNXK0AChC_ucAe-qL-26" target="DU6GNXK0AChC_ucAe-qL-1">
          <mxGeometry relative="1" as="geometry">
            <Array as="points">
              <mxPoint x="460" y="510" />
              <mxPoint x="90" y="510" />
            </Array>
          </mxGeometry>
        </mxCell>
      </root>
    </mxGraphModel>
  </diagram>
</mxfile>
